<svg id="visual" viewBox="0 0 900 300" width="900" height="300" xmlns="http://www.w3.org/2000/svg" xmlns:xlink="http://www.w3.org/1999/xlink" version="1.1"><path d="M0 112L21.5 112.2C43 112.3 86 112.7 128.8 112.5C171.7 112.3 214.3 111.7 257.2 105.7C300 99.7 343 88.3 385.8 90.3C428.7 92.3 471.3 107.7 514.2 108.5C557 109.3 600 95.7 642.8 89.3C685.7 83 728.3 84 771.2 85.5C814 87 857 89 878.5 90L900 91L900 0L878.5 0C857 0 814 0 771.2 0C728.3 0 685.7 0 642.8 0C600 0 557 0 514.2 0C471.3 0 428.7 0 385.8 0C343 0 300 0 257.2 0C214.3 0 171.7 0 128.8 0C86 0 43 0 21.5 0L0 0Z" fill="#798998"></path><path d="M0 93L21.5 87.8C43 82.7 86 72.3 128.8 70.5C171.7 68.7 214.3 75.3 257.2 79.3C300 83.3 343 84.7 385.8 88C428.7 91.3 471.3 96.7 514.2 97.7C557 98.7 600 95.3 642.8 94C685.7 92.7 728.3 93.3 771.2 89.8C814 86.3 857 78.7 878.5 74.8L900 71L900 0L878.5 0C857 0 814 0 771.2 0C728.3 0 685.7 0 642.8 0C600 0 557 0 514.2 0C471.3 0 428.7 0 385.8 0C343 0 300 0 257.2 0C214.3 0 171.7 0 128.8 0C86 0 43 0 21.5 0L0 0Z" fill="#8098a6"></path><path d="M0 64L21.5 63.5C43 63 86 62 128.8 62C171.7 62 214.3 63 257.2 64.8C300 66.7 343 69.3 385.8 68.8C428.7 68.3 471.3 64.7 514.2 65.3C557 66 600 71 642.8 73.3C685.7 75.7 728.3 75.3 771.2 72C814 68.7 857 62.3 878.5 59.2L900 56L900 0L878.5 0C857 0 814 0 771.2 0C728.3 0 685.7 0 642.8 0C600 0 557 0 514.2 0C471.3 0 428.7 0 385.8 0C343 0 300 0 257.2 0C214.3 0 171.7 0 128.8 0C86 0 43 0 21.5 0L0 0Z" fill="#88a7b2"></path><path d="M0 58L21.5 54C43 50 86 42 128.8 39.8C171.7 37.7 214.3 41.3 257.2 43C300 44.7 343 44.3 385.8 46.5C428.7 48.7 471.3 53.3 514.2 50.8C557 48.3 600 38.7 642.8 33.8C685.7 29 728.3 29 771.2 28.8C814 28.7 857 28.3 878.5 28.2L900 28L900 0L878.5 0C857 0 814 0 771.2 0C728.3 0 685.7 0 642.8 0C600 0 557 0 514.2 0C471.3 0 428.7 0 385.8 0C343 0 300 0 257.2 0C214.3 0 171.7 0 128.8 0C86 0 43 0 21.5 0L0 0Z" fill="#91b6bd"></path><path d="M0 23L21.5 24.5C43 26 86 29 128.8 29.3C171.7 29.7 214.3 27.3 257.2 24.2C300 21 343 17 385.8 15.8C428.7 14.7 471.3 16.3 514.2 17C557 17.7 600 17.3 642.8 20.3C685.7 23.3 728.3 29.7 771.2 28.8C814 28 857 20 878.5 16L900 12L900 0L878.5 0C857 0 814 0 771.2 0C728.3 0 685.7 0 642.8 0C600 0 557 0 514.2 0C471.3 0 428.7 0 385.8 0C343 0 300 0 257.2 0C214.3 0 171.7 0 128.8 0C86 0 43 0 21.5 0L0 0Z" fill="#9bc5c7"></path></svg>