<svg id="visual" viewBox="0 0 900 300" width="900" height="300" xmlns="http://www.w3.org/2000/svg" xmlns:xlink="http://www.w3.org/1999/xlink" version="1.1"><path d="M0 186L21.5 185.8C43 185.7 86 185.3 128.8 185.5C171.7 185.7 214.3 186.3 257.2 192.3C300 198.3 343 209.7 385.8 207.7C428.7 205.7 471.3 190.3 514.2 189.5C557 188.7 600 202.3 642.8 208.7C685.7 215 728.3 214 771.2 212.5C814 211 857 209 878.5 208L900 207L900 301L878.5 301C857 301 814 301 771.2 301C728.3 301 685.7 301 642.8 301C600 301 557 301 514.2 301C471.3 301 428.7 301 385.8 301C343 301 300 301 257.2 301C214.3 301 171.7 301 128.8 301C86 301 43 301 21.5 301L0 301Z" fill="#798998"></path><path d="M0 205L21.5 210.2C43 215.3 86 225.7 128.8 227.5C171.7 229.3 214.3 222.7 257.2 218.7C300 214.7 343 213.3 385.8 210C428.7 206.7 471.3 201.3 514.2 200.3C557 199.3 600 202.7 642.8 204C685.7 205.3 728.3 204.7 771.2 208.2C814 211.7 857 219.3 878.5 223.2L900 227L900 301L878.5 301C857 301 814 301 771.2 301C728.3 301 685.7 301 642.8 301C600 301 557 301 514.2 301C471.3 301 428.7 301 385.8 301C343 301 300 301 257.2 301C214.3 301 171.7 301 128.8 301C86 301 43 301 21.5 301L0 301Z" fill="#8098a6"></path><path d="M0 234L21.5 234.5C43 235 86 236 128.8 236C171.7 236 214.3 235 257.2 233.2C300 231.3 343 228.7 385.8 229.2C428.7 229.7 471.3 233.3 514.2 232.7C557 232 600 227 642.8 224.7C685.7 222.3 728.3 222.7 771.2 226C814 229.3 857 235.7 878.5 238.8L900 242L900 301L878.5 301C857 301 814 301 771.2 301C728.3 301 685.7 301 642.8 301C600 301 557 301 514.2 301C471.3 301 428.7 301 385.8 301C343 301 300 301 257.2 301C214.3 301 171.7 301 128.8 301C86 301 43 301 21.5 301L0 301Z" fill="#88a7b2"></path><path d="M0 240L21.5 244C43 248 86 256 128.8 258.2C171.7 260.3 214.3 256.7 257.2 255C300 253.3 343 253.7 385.8 251.5C428.7 249.3 471.3 244.7 514.2 247.2C557 249.7 600 259.3 642.8 264.2C685.7 269 728.3 269 771.2 269.2C814 269.3 857 269.7 878.5 269.8L900 270L900 301L878.5 301C857 301 814 301 771.2 301C728.3 301 685.7 301 642.8 301C600 301 557 301 514.2 301C471.3 301 428.7 301 385.8 301C343 301 300 301 257.2 301C214.3 301 171.7 301 128.8 301C86 301 43 301 21.5 301L0 301Z" fill="#91b6bd"></path><path d="M0 275L21.5 273.5C43 272 86 269 128.8 268.7C171.7 268.3 214.3 270.7 257.2 273.8C300 277 343 281 385.8 282.2C428.7 283.3 471.3 281.7 514.2 281C557 280.3 600 280.7 642.8 277.7C685.7 274.7 728.3 268.3 771.2 269.2C814 270 857 278 878.5 282L900 286L900 301L878.5 301C857 301 814 301 771.2 301C728.3 301 685.7 301 642.8 301C600 301 557 301 514.2 301C471.3 301 428.7 301 385.8 301C343 301 300 301 257.2 301C214.3 301 171.7 301 128.8 301C86 301 43 301 21.5 301L0 301Z" fill="#9bc5c7"></path></svg>