<svg xmlns="http://www.w3.org/2000/svg" xmlns:xlink="http://www.w3.org/1999/xlink" width="2099.973" height="774.898" viewBox="0 0 2099.973 774.898">
  <defs>
    <clipPath id="clip-path">
      <path id="Path_426" data-name="Path 426" d="M0,0H2099.973V774.9H0Z" fill="none"/>
    </clipPath>
  </defs>
  <g id="Tarakeep_UX_Challenge_-_Fatimah_Alamoudi_4_" data-name="Tarakeep UX Challenge - Fatimah Alamoudi (4)" clip-path="url(#clip-path)">
    <path id="Path_357" data-name="Path 357" d="M0,0H2099.973V774.9H0Z" fill="rgba(0,0,0,0)" fill-rule="evenodd"/>
    <path id="Path_358" data-name="Path 358" d="M382.008,219.1h0c0-24.911,25.5-45.105,56.954-45.105h59.526c15.105,0,29.592,4.752,40.273,13.211s16.682,19.932,16.682,31.894V616.973c0,24.911-25.5,45.105-56.954,45.105H438.962c-31.455,0-56.954-20.194-56.954-45.105Z" transform="translate(460.074 91.805)" fill="#9bc5c7" fill-rule="evenodd"/>
    <path id="Path_359" data-name="Path 359" d="M499.058,219.1h0c0-24.911,25.5-45.105,56.953-45.105h59.525c15.1,0,29.591,4.752,40.272,13.211s16.681,19.932,16.681,31.894V616.973c0,24.911-25.5,45.105-56.953,45.105H556.011c-31.454,0-56.953-20.194-56.953-45.105Z" transform="translate(613.426 91.805)" fill="#9bc5c7" fill-rule="evenodd"/>
    <path id="Path_360" data-name="Path 360" d="M616.11,219.1h0c0-24.911,25.5-45.105,56.953-45.105h59.525c15.1,0,29.591,4.752,40.271,13.211S789.54,207.142,789.54,219.1V616.973c0,24.911-25.5,45.105-56.953,45.105H673.063c-31.454,0-56.953-20.194-56.953-45.105Z" transform="translate(749.162 91.805)" fill="#9bc5c7" fill-rule="evenodd"/>
    <path id="Path_361" data-name="Path 361" d="M733.163,219.1h0c0-24.911,25.5-45.105,56.953-45.105h59.525c15.1,0,29.591,4.752,40.271,13.211s16.681,19.932,16.681,31.894V616.973c0,24.911-25.5,45.105-56.953,45.105H790.116c-31.454,0-56.953-20.194-56.953-45.105Z" transform="translate(893.752 88.687)" fill="#9bc5c7" fill-rule="evenodd"/>
    <path id="Path_362" data-name="Path 362" d="M108.3,271.747h0c0-15.932,19.688-28.848,43.975-28.848H1690.5c11.663,0,22.848,3.039,31.094,8.449s12.88,12.747,12.88,20.4v22.348c0,15.932-19.688,28.848-43.975,28.848H152.274c-24.287,0-43.975-12.916-43.975-28.848Z" transform="translate(128.602 105.66)" fill="rgba(255,255,255,0.76)" fill-rule="evenodd"/>
    <path id="Path_363" data-name="Path 363" d="M121.808,250.583H454.647V308.57H121.808Z" transform="translate(144.644 109.003)" fill="rgba(0,0,0,0)" fill-rule="evenodd"/>
    <path id="Path_364" data-name="Path 364" d="M146.5,274.266a7.846,7.846,0,0,1,2.8.852,5.656,5.656,0,0,1,2.051,1.659,3.415,3.415,0,0,1,.752,2.108,3.613,3.613,0,0,1-1.094,2.556,7.644,7.644,0,0,1-3.213,1.794,16.737,16.737,0,0,1-4.956.65h-10.6V265.23h10.185a17.08,17.08,0,0,1,4.956.628,6.733,6.733,0,0,1,3.042,1.7,3.349,3.349,0,0,1,1.025,2.4,3.4,3.4,0,0,1-1.367,2.758A8.612,8.612,0,0,1,146.5,274.266Zm-10.527-.987h6.221a8.387,8.387,0,0,0,4.033-.785,2.451,2.451,0,0,0,0-4.462,8.363,8.363,0,0,0-4.1-.807h-6.152Zm6.562,8.588a8.978,8.978,0,0,0,4.307-.852,2.618,2.618,0,0,0,1.572-2.377,2.719,2.719,0,0,0-1.641-2.444,9.13,9.13,0,0,0-4.375-.9h-6.426v6.57ZM160.987,271.6a6.135,6.135,0,0,1,2.769-1.951,12.634,12.634,0,0,1,4.443-.7v2.511h-.991q-6.221,0-6.221,4.44v7.982h-3.726V269.221h3.726V271.6Zm10.1,4.888a5.943,5.943,0,0,1,1.4-3.924,9.081,9.081,0,0,1,3.828-2.646,14.817,14.817,0,0,1,5.4-.942,14.149,14.149,0,0,1,5.093.83,7.758,7.758,0,0,1,3.213,2.085v-2.668h3.76v14.664h-3.76V281.15a7.965,7.965,0,0,1-3.281,2.152,15.717,15.717,0,0,1-10.459-.135,9.185,9.185,0,0,1-3.794-2.691,6.207,6.207,0,0,1-1.4-3.991Zm18.935.045a4.385,4.385,0,0,0-1.025-2.892,6.182,6.182,0,0,0-2.734-1.883,11.31,11.31,0,0,0-7.622-.022,6.453,6.453,0,0,0-2.734,1.883,4.3,4.3,0,0,0-1.025,2.87,4.536,4.536,0,0,0,1.025,2.96,6.453,6.453,0,0,0,2.734,1.883,10.593,10.593,0,0,0,3.794.65,10.873,10.873,0,0,0,3.828-.65,6.182,6.182,0,0,0,2.734-1.883A4.472,4.472,0,0,0,190.018,276.531Zm11.968-9.709a3.345,3.345,0,0,1-1.811-.471,1.425,1.425,0,0,1-.718-1.188,1.372,1.372,0,0,1,.718-1.166,3.229,3.229,0,0,1,1.811-.493,3,3,0,0,1,1.743.493,1.372,1.372,0,0,1,.718,1.166,1.425,1.425,0,0,1-.718,1.188A3.108,3.108,0,0,1,201.986,266.822Zm1.812,2.4v14.664h-3.726V269.222Zm17.217-.269a12.091,12.091,0,0,1,6.6,1.614,5.2,5.2,0,0,1,2.529,4.664v8.655h-3.657v-8.3a3.846,3.846,0,0,0-1.675-3.363,7.9,7.9,0,0,0-4.58-1.166,8.072,8.072,0,0,0-4.683,1.211,4.022,4.022,0,0,0-1.709,3.5v8.117h-3.726V269.221h3.726v2.085a7.111,7.111,0,0,1,2.974-1.727,13.426,13.426,0,0,1,4.2-.628Zm23.145,15.18a17.012,17.012,0,0,1-4.648-.583,8.457,8.457,0,0,1-3.213-1.614,3.6,3.6,0,0,1-1.3-2.354h3.828a2.513,2.513,0,0,0,1.572,1.794,8.488,8.488,0,0,0,3.691.7,7.685,7.685,0,0,0,3.35-.605q1.23-.628,1.23-1.57,0-.964-1.3-1.435a24.431,24.431,0,0,0-4.033-.919q-2.5-.426-4.067-.852a7.882,7.882,0,0,1-2.7-1.323,2.758,2.758,0,0,1-1.128-2.287,2.727,2.727,0,0,1,1.025-2.063,7.15,7.15,0,0,1,2.905-1.48,14.956,14.956,0,0,1,4.272-.561,12.678,12.678,0,0,1,6.016,1.233,4.057,4.057,0,0,1,2.427,3.363H248.4a2.42,2.42,0,0,0-1.436-1.839,7.119,7.119,0,0,0-3.418-.7,7.67,7.67,0,0,0-3.213.561q-1.162.561-1.162,1.48a1.388,1.388,0,0,0,.718,1.188,6.254,6.254,0,0,0,1.777.762q1.094.269,3.008.605,2.427.426,3.931.852a7.081,7.081,0,0,1,2.564,1.233,2.7,2.7,0,0,1,1.128,2.175,2.923,2.923,0,0,1-1.025,2.175,6.874,6.874,0,0,1-2.871,1.525A15.172,15.172,0,0,1,244.159,284.132Zm17.885-12.915v8.655a1.685,1.685,0,0,0,.684,1.525,5.043,5.043,0,0,0,2.427.426h2.734v2.063h-3.35a9.2,9.2,0,0,1-4.648-.942,3.324,3.324,0,0,1-1.538-3.072v-8.655h-2.905v-2h2.905v-3.7h3.691v3.7h5.845v2Zm20.084,12.915a16.453,16.453,0,0,1-5.708-.942,9.448,9.448,0,0,1-4-2.668,6.059,6.059,0,0,1-1.436-3.991,5.9,5.9,0,0,1,1.5-3.991,9.522,9.522,0,0,1,4.067-2.646,18.392,18.392,0,0,1,11.484,0,9.251,9.251,0,0,1,4.067,2.646,6,6,0,0,1-.034,7.982,9.931,9.931,0,0,1-4.17,2.668A16.849,16.849,0,0,1,282.128,284.132Zm0-2.152a11.385,11.385,0,0,0,3.76-.605,6.776,6.776,0,0,0,2.837-1.861,4.338,4.338,0,0,0,1.094-2.982,4.452,4.452,0,0,0-1.06-3,6.349,6.349,0,0,0-2.8-1.839,10.978,10.978,0,0,0-3.691-.605,11.191,11.191,0,0,0-3.76.605,6.139,6.139,0,0,0-2.7,1.839,4.544,4.544,0,0,0-1.025,3,4.678,4.678,0,0,0,.991,3.027,6.225,6.225,0,0,0,2.7,1.816A10.685,10.685,0,0,0,282.128,281.98Zm20.1-10.381A6.135,6.135,0,0,1,305,269.648a12.634,12.634,0,0,1,4.443-.7v2.511h-.991q-6.221,0-6.221,4.44v7.982h-3.726V269.221h3.726V271.6Zm38.4-2.646a14.026,14.026,0,0,1,4.648.717,6.833,6.833,0,0,1,3.213,2.13,5.13,5.13,0,0,1,1.2,3.431v8.655h-3.691v-8.3a3.872,3.872,0,0,0-1.641-3.363,7.6,7.6,0,0,0-4.477-1.166,7.831,7.831,0,0,0-4.614,1.233,4.022,4.022,0,0,0-1.709,3.5v8.094h-3.657v-8.3a3.846,3.846,0,0,0-1.675-3.363,7.536,7.536,0,0,0-4.443-1.166,7.735,7.735,0,0,0-4.614,1.233,4.022,4.022,0,0,0-1.709,3.5v8.094h-3.726V269.221h3.726v2.108a6.993,6.993,0,0,1,2.939-1.749,12.679,12.679,0,0,1,4.1-.628,13.83,13.83,0,0,1,4.99.83A6.529,6.529,0,0,1,332.7,272.2a6.158,6.158,0,0,1,3.11-2.4,13,13,0,0,1,4.819-.852Zm17.049-2.13a3.345,3.345,0,0,1-1.811-.471,1.424,1.424,0,0,1-.718-1.188,1.372,1.372,0,0,1,.718-1.166,3.229,3.229,0,0,1,1.811-.493,3,3,0,0,1,1.743.493,1.372,1.372,0,0,1,.718,1.166,1.425,1.425,0,0,1-.718,1.188A3.108,3.108,0,0,1,357.676,266.822Zm1.811,2.4v14.664h-3.726V269.222Zm17.217-.269a12.091,12.091,0,0,1,6.6,1.614,5.2,5.2,0,0,1,2.529,4.664v8.655h-3.657v-8.3a3.846,3.846,0,0,0-1.675-3.363,7.9,7.9,0,0,0-4.58-1.166,8.072,8.072,0,0,0-4.683,1.211,4.022,4.022,0,0,0-1.709,3.5v8.117H365.8V269.221h3.726v2.085a7.111,7.111,0,0,1,2.974-1.726,13.426,13.426,0,0,1,4.2-.628Zm24.444.022a14.041,14.041,0,0,1,5.058.83,7.748,7.748,0,0,1,3.247,2.085v-2.668h3.76V284.2a5.469,5.469,0,0,1-1.3,3.587,8.391,8.391,0,0,1-3.726,2.444,16.724,16.724,0,0,1-5.674.874,17.407,17.407,0,0,1-7.349-1.368q-2.939-1.345-3.452-3.7h3.657a4.554,4.554,0,0,0,2.529,2.13,11.725,11.725,0,0,0,4.614.83,8.953,8.953,0,0,0,4.99-1.256,3.983,3.983,0,0,0,1.948-3.543v-3.072a8.289,8.289,0,0,1-3.247,2.152,13.708,13.708,0,0,1-5.058.852,14.511,14.511,0,0,1-5.4-.964,9.158,9.158,0,0,1-3.828-2.691,6.208,6.208,0,0,1-1.4-3.991,5.944,5.944,0,0,1,1.4-3.924,9.082,9.082,0,0,1,3.828-2.646,14.817,14.817,0,0,1,5.4-.942Zm8.306,7.556a4.385,4.385,0,0,0-1.025-2.892,6.182,6.182,0,0,0-2.734-1.883,11.31,11.31,0,0,0-7.622-.022,6.452,6.452,0,0,0-2.734,1.883,4.3,4.3,0,0,0-1.025,2.87,4.535,4.535,0,0,0,1.025,2.96,6.452,6.452,0,0,0,2.734,1.883,10.593,10.593,0,0,0,3.794.65,10.873,10.873,0,0,0,3.828-.65,6.182,6.182,0,0,0,2.734-1.883A4.472,4.472,0,0,0,409.453,276.531Z" transform="translate(157.038 114.623)" fill="#798998"/>
    <path id="Path_365" data-name="Path 365" d="M273.966,271.472l355.094-2.26" transform="translate(325.327 117.106)" fill="rgba(0,0,0,0)" fill-rule="evenodd"/>
    <path id="Path_366" data-name="Path 366" d="M273.966,271.425l330.595-2.1" transform="translate(325.327 117.154)" fill="none" stroke="#e24645" stroke-linejoin="round" stroke-miterlimit="10" stroke-width="4" fill-rule="evenodd"/>
    <path id="Path_367" data-name="Path 367" d="M445.222,271.214c.054,3.645-4.407,6.629-9.964,6.665s-10.106-2.891-10.159-6.537,4.407-6.629,9.964-6.665S445.168,267.568,445.222,271.214Z" transform="translate(504.791 115.133)" fill="#e24645" stroke="#e24645" stroke-miterlimit="10" stroke-width="4"/>
    <path id="Path_368" data-name="Path 368" d="M365.694,193.6H646.447v57.987H365.694Z" transform="translate(430.718 86.195)" fill="rgba(0,0,0,0)" fill-rule="evenodd"/>
    <path id="Path_369" data-name="Path 369" d="M398.856,209.6v-2.063H406v17.982h-3.486V209.6Zm31.1,16.144a15.912,15.912,0,0,1-4.306-.538,8.138,8.138,0,0,1-3.008-1.48,3.266,3.266,0,0,1-1.2-2.22H425a2.384,2.384,0,0,0,1.47,1.682,7.669,7.669,0,0,0,3.418.65,7.1,7.1,0,0,0,3.11-.561q1.162-.583,1.162-1.457,0-.9-1.23-1.323a21.852,21.852,0,0,0-3.76-.874q-2.29-.4-3.76-.807a7.324,7.324,0,0,1-2.529-1.211,2.578,2.578,0,0,1-1.025-2.13,2.515,2.515,0,0,1,.957-1.906,6.828,6.828,0,0,1,2.7-1.39,13.983,13.983,0,0,1,3.965-.516,11.722,11.722,0,0,1,5.571,1.143,3.885,3.885,0,0,1,2.29,3.139h-3.452a2.144,2.144,0,0,0-1.3-1.7,6.747,6.747,0,0,0-3.213-.65,7.225,7.225,0,0,0-2.974.516q-1.094.516-1.094,1.368a1.326,1.326,0,0,0,.649,1.121,6.264,6.264,0,0,0,1.675.7q1.025.247,2.8.561,2.222.4,3.623.807a6.807,6.807,0,0,1,2.393,1.143,2.485,2.485,0,0,1,1.06,2.018,2.711,2.711,0,0,1-.957,2.018,6.355,6.355,0,0,1-2.666,1.413A14.205,14.205,0,0,1,429.958,225.747Zm16.608-12V221.8a1.562,1.562,0,0,0,.649,1.413,4.549,4.549,0,0,0,2.256.4H452v1.906h-3.11a8.433,8.433,0,0,1-4.307-.874,3.078,3.078,0,0,1-1.436-2.848v-8.049h-2.7V211.89h2.7V208.46h3.418v3.431H452v1.861Zm18.449,4.91a5.654,5.654,0,0,1,1.265-3.655,8.373,8.373,0,0,1,3.555-2.466,13.9,13.9,0,0,1,5.059-.874,13.4,13.4,0,0,1,4.512.74,7.762,7.762,0,0,1,3.179,1.928v-7.22h3.486v18.408h-3.486v-2.556a7.419,7.419,0,0,1-3.042,2,12.692,12.692,0,0,1-4.683.785,13.493,13.493,0,0,1-5.024-.9,8.45,8.45,0,0,1-3.555-2.511,5.8,5.8,0,0,1-1.265-3.677Zm17.568.022a4.062,4.062,0,0,0-.957-2.691,5.78,5.78,0,0,0-2.529-1.749,10.739,10.739,0,0,0-7.109,0,5.885,5.885,0,0,0-2.529,1.727,4.154,4.154,0,0,0-.923,2.691,4.277,4.277,0,0,0,.923,2.735,6.058,6.058,0,0,0,2.529,1.749,10.738,10.738,0,0,0,7.109,0,5.78,5.78,0,0,0,2.529-1.749A4.149,4.149,0,0,0,482.583,218.684Zm8.055-.022a5.654,5.654,0,0,1,1.265-3.655,8.372,8.372,0,0,1,3.555-2.466,13.8,13.8,0,0,1,5.024-.874,12.8,12.8,0,0,1,4.717.785,7.2,7.2,0,0,1,3.008,1.928V211.89h3.486v13.632h-3.486v-2.534a7.544,7.544,0,0,1-3.042,1.973,12.968,12.968,0,0,1-4.717.785,13.492,13.492,0,0,1-5.024-.9,8.477,8.477,0,0,1-3.521-2.511A5.8,5.8,0,0,1,490.639,218.662Zm17.568.022a4.061,4.061,0,0,0-.957-2.691,5.781,5.781,0,0,0-2.529-1.749,10.739,10.739,0,0,0-7.109,0,5.886,5.886,0,0,0-2.529,1.727,4.154,4.154,0,0,0-.923,2.691,4.277,4.277,0,0,0,.923,2.735,6.058,6.058,0,0,0,2.529,1.749,10.738,10.738,0,0,0,7.109,0,5.781,5.781,0,0,0,2.529-1.749A4.149,4.149,0,0,0,508.207,218.684Zm27.23-6.794-12.51,20.045h-3.555l4.067-6.57-8.374-13.476h3.828l6.528,11.054,6.46-11.054h3.555Z" transform="translate(460.527 90.096)" fill="#fff"/>
    <path id="Path_370" data-name="Path 370" d="M482.746,193.6H763.5v57.987H482.746Z" transform="translate(504.312 83.939)" fill="rgba(0,0,0,0)" fill-rule="evenodd"/>
    <path id="Path_371" data-name="Path 371" d="M512.521,223.708q4.785-2.534,7.519-4.148a26.714,26.714,0,0,0,4.614-3.408,5.021,5.021,0,0,0,1.88-3.5,3.042,3.042,0,0,0-1.2-2.556,6.278,6.278,0,0,0-3.862-.942,6.544,6.544,0,0,0-4,1.076,3.723,3.723,0,0,0-1.538,2.8h-3.315a5.079,5.079,0,0,1,2.563-4.283,11.589,11.589,0,0,1,6.255-1.525,11.791,11.791,0,0,1,6.221,1.413,4.374,4.374,0,0,1,2.29,3.9,5.8,5.8,0,0,1-1.88,4.013,21.894,21.894,0,0,1-4.272,3.431q-2.393,1.48-6.118,3.453h13.057v1.883H512.521Zm32.869-12.063a11.3,11.3,0,0,1,6.152,1.5,4.849,4.849,0,0,1,2.358,4.35v8.027h-3.418v-7.713a3.543,3.543,0,0,0-1.572-3.117,7.292,7.292,0,0,0-4.238-1.076,7.561,7.561,0,0,0-4.341,1.121,3.718,3.718,0,0,0-1.607,3.251v7.534h-3.452V211.891h3.452v1.951a6.6,6.6,0,0,1,2.769-1.614A12.443,12.443,0,0,1,545.39,211.645Zm12.877,7.018a5.653,5.653,0,0,1,1.264-3.655,8.372,8.372,0,0,1,3.555-2.466,13.9,13.9,0,0,1,5.058-.874,13.4,13.4,0,0,1,4.512.74,7.759,7.759,0,0,1,3.179,1.928v-7.22h3.486v18.408h-3.486v-2.556a7.418,7.418,0,0,1-3.042,2,12.694,12.694,0,0,1-4.683.785,13.491,13.491,0,0,1-5.024-.9,8.449,8.449,0,0,1-3.555-2.511,5.8,5.8,0,0,1-1.264-3.677Zm17.568.022a4.061,4.061,0,0,0-.957-2.691,5.782,5.782,0,0,0-2.529-1.749,10.738,10.738,0,0,0-7.109,0,5.885,5.885,0,0,0-2.529,1.726,4.155,4.155,0,0,0-.923,2.691,4.278,4.278,0,0,0,.923,2.735,6.057,6.057,0,0,0,2.529,1.749,10.738,10.738,0,0,0,7.109,0,5.782,5.782,0,0,0,2.529-1.749A4.148,4.148,0,0,0,575.835,218.685Zm18.176-.022a5.653,5.653,0,0,1,1.264-3.655,8.372,8.372,0,0,1,3.555-2.466,13.9,13.9,0,0,1,5.058-.874,13.4,13.4,0,0,1,4.512.74,7.76,7.76,0,0,1,3.179,1.928v-7.22h3.486v18.408H611.58v-2.556a7.418,7.418,0,0,1-3.042,2,12.693,12.693,0,0,1-4.683.785,13.492,13.492,0,0,1-5.024-.9,8.449,8.449,0,0,1-3.555-2.511,5.8,5.8,0,0,1-1.264-3.677Zm17.568.022a4.061,4.061,0,0,0-.957-2.691,5.781,5.781,0,0,0-2.529-1.749,10.739,10.739,0,0,0-7.109,0,5.887,5.887,0,0,0-2.529,1.726,4.155,4.155,0,0,0-.923,2.691,4.277,4.277,0,0,0,.923,2.735,6.059,6.059,0,0,0,2.529,1.749,10.738,10.738,0,0,0,7.109,0,5.781,5.781,0,0,0,2.529-1.749A4.148,4.148,0,0,0,611.58,218.685Zm8.055-.022a5.654,5.654,0,0,1,1.265-3.655,8.372,8.372,0,0,1,3.555-2.466,13.8,13.8,0,0,1,5.024-.874,12.8,12.8,0,0,1,4.717.785,7.2,7.2,0,0,1,3.008,1.928v-2.489h3.486v13.632H637.2V222.99a7.546,7.546,0,0,1-3.042,1.973,12.967,12.967,0,0,1-4.717.785,13.49,13.49,0,0,1-5.024-.9,8.476,8.476,0,0,1-3.521-2.511A5.8,5.8,0,0,1,619.635,218.663Zm17.568.022a4.062,4.062,0,0,0-.957-2.691,5.782,5.782,0,0,0-2.529-1.749,10.739,10.739,0,0,0-7.109,0,5.886,5.886,0,0,0-2.529,1.726,4.155,4.155,0,0,0-.923,2.691,4.277,4.277,0,0,0,.923,2.735,6.058,6.058,0,0,0,2.529,1.749,10.738,10.738,0,0,0,7.109,0,5.782,5.782,0,0,0,2.529-1.749A4.149,4.149,0,0,0,637.2,218.685Zm27.23-6.794-12.51,20.045h-3.555l4.067-6.57-8.374-13.476h3.828l6.528,11.054,6.46-11.054h3.555Z" transform="translate(608.604 90.094)" fill="#fff"/>
    <path id="Path_372" data-name="Path 372" d="M599.8,193.6H880.552v57.987H599.8Z" transform="translate(711.811 94.76)" fill="rgba(0,0,0,0)" fill-rule="evenodd"/>
    <path id="Path_373" data-name="Path 373" d="M632.163,212.07a4.488,4.488,0,0,1,2.666-3.565,13.277,13.277,0,0,1,6.289-1.3,14.68,14.68,0,0,1,4.478.605,6.392,6.392,0,0,1,2.837,1.659,3.326,3.326,0,0,1-.41,5.022,6.821,6.821,0,0,1-3.486,1.435v.112a8.179,8.179,0,0,1,3.9,1.57,3.73,3.73,0,0,1,1.47,3.072,3.806,3.806,0,0,1-.991,2.556,6.633,6.633,0,0,1-2.973,1.771,15,15,0,0,1-4.717.65,13.98,13.98,0,0,1-6.631-1.39,5.04,5.04,0,0,1-2.871-3.924h3.35a3.575,3.575,0,0,0,1.846,2.444,8.331,8.331,0,0,0,4.238.942,7.4,7.4,0,0,0,4.033-.9,2.754,2.754,0,0,0-.513-5.022,14.878,14.878,0,0,0-5.708-.83h-.855v-1.906H639a15.029,15.029,0,0,0,5.263-.74,2.443,2.443,0,0,0,1.812-2.287,2.37,2.37,0,0,0-1.333-2.108,7.1,7.1,0,0,0-3.726-.807,7.721,7.721,0,0,0-3.794.807,3.115,3.115,0,0,0-1.709,2.13Zm26.393,2.04a5.976,5.976,0,0,1,2.6-1.816,11.66,11.66,0,0,1,4.136-.65v2.332h-.923q-5.81,0-5.81,4.148v7.4H655.1V211.891h3.452Zm9.422,4.552a5.654,5.654,0,0,1,1.265-3.655,8.373,8.373,0,0,1,3.555-2.466,13.9,13.9,0,0,1,5.059-.874,13.4,13.4,0,0,1,4.512.74,7.763,7.763,0,0,1,3.179,1.928v-7.22h3.486v18.408h-3.486v-2.556a7.42,7.42,0,0,1-3.042,2,12.694,12.694,0,0,1-4.683.785,13.492,13.492,0,0,1-5.024-.9,8.449,8.449,0,0,1-3.555-2.511,5.8,5.8,0,0,1-1.265-3.677Zm17.568.022a4.062,4.062,0,0,0-.957-2.691,5.781,5.781,0,0,0-2.529-1.749,10.738,10.738,0,0,0-7.109,0,5.886,5.886,0,0,0-2.529,1.726,4.155,4.155,0,0,0-.923,2.691,4.278,4.278,0,0,0,.923,2.735,6.059,6.059,0,0,0,2.529,1.749,10.739,10.739,0,0,0,7.109,0,5.781,5.781,0,0,0,2.529-1.749A4.149,4.149,0,0,0,685.546,218.685Zm18.176-.022a5.654,5.654,0,0,1,1.265-3.655,8.373,8.373,0,0,1,3.555-2.466,13.9,13.9,0,0,1,5.059-.874,13.4,13.4,0,0,1,4.512.74,7.761,7.761,0,0,1,3.179,1.928v-7.22h3.486v18.408H721.29v-2.556a7.419,7.419,0,0,1-3.042,2,12.693,12.693,0,0,1-4.682.785,13.492,13.492,0,0,1-5.024-.9,8.449,8.449,0,0,1-3.555-2.511,5.8,5.8,0,0,1-1.265-3.677Zm17.568.022a4.062,4.062,0,0,0-.957-2.691,5.782,5.782,0,0,0-2.529-1.749,10.738,10.738,0,0,0-7.109,0,5.886,5.886,0,0,0-2.529,1.726,4.155,4.155,0,0,0-.923,2.691,4.278,4.278,0,0,0,.923,2.735,6.059,6.059,0,0,0,2.529,1.749,10.739,10.739,0,0,0,7.109,0,5.782,5.782,0,0,0,2.529-1.749A4.149,4.149,0,0,0,721.29,218.685Zm8.055-.022a5.654,5.654,0,0,1,1.265-3.655,8.373,8.373,0,0,1,3.555-2.466,13.8,13.8,0,0,1,5.024-.874,12.8,12.8,0,0,1,4.717.785,7.2,7.2,0,0,1,3.008,1.928v-2.489H750.4v13.632h-3.486V222.99a7.546,7.546,0,0,1-3.042,1.973,12.968,12.968,0,0,1-4.717.785,13.493,13.493,0,0,1-5.024-.9,8.476,8.476,0,0,1-3.52-2.511A5.8,5.8,0,0,1,729.346,218.662Zm17.568.022a4.061,4.061,0,0,0-.957-2.691,5.781,5.781,0,0,0-2.529-1.749,10.738,10.738,0,0,0-7.109,0,5.885,5.885,0,0,0-2.529,1.726,4.154,4.154,0,0,0-.923,2.691,4.277,4.277,0,0,0,.923,2.735,6.058,6.058,0,0,0,2.529,1.749,10.738,10.738,0,0,0,7.109,0,5.782,5.782,0,0,0,2.529-1.749A4.148,4.148,0,0,0,746.914,218.685Zm27.23-6.794-12.51,20.045h-3.555l4.067-6.57-8.374-13.475H757.6l6.528,11.054,6.46-11.054h3.555Z" transform="translate(750.148 90.094)" fill="#fff"/>
    <path id="Path_374" data-name="Path 374" d="M716.851,193.6H997.6v57.987H716.851Z" transform="translate(851.24 84.214)" fill="rgba(0,0,0,0)" fill-rule="evenodd"/>
    <path id="Path_375" data-name="Path 375" d="M748.659,221.51v-1.7l13.33-12.085h4.1v11.839h3.794v1.951H766.09v4.013h-3.384V221.51Zm14.184-11.435-10.185,9.484h10.185Zm15.263,3.677V221.8a1.562,1.562,0,0,0,.649,1.413,4.549,4.549,0,0,0,2.256.4h2.529v1.906h-3.11a8.433,8.433,0,0,1-4.307-.874,3.077,3.077,0,0,1-1.436-2.848v-8.049h-2.7v-1.861h2.7V208.46h3.418v3.431h5.434v1.861Zm19.915-2.108a12.524,12.524,0,0,1,4.238.673,6.281,6.281,0,0,1,2.974,1.973,4.868,4.868,0,0,1,1.094,3.206v8.027h-3.418V217.81a3.543,3.543,0,0,0-1.572-3.117,7.292,7.292,0,0,0-4.238-1.076,7.561,7.561,0,0,0-4.341,1.121,3.718,3.718,0,0,0-1.607,3.251v7.534H787.7V207.115h3.452v6.727a6.59,6.59,0,0,1,2.837-1.614,13.119,13.119,0,0,1,4.033-.583Zm22.793,7.018a5.653,5.653,0,0,1,1.265-3.655,8.373,8.373,0,0,1,3.555-2.466,13.9,13.9,0,0,1,5.058-.874,13.4,13.4,0,0,1,4.512.74,7.76,7.76,0,0,1,3.179,1.928v-7.22h3.486v18.408h-3.486v-2.556a7.419,7.419,0,0,1-3.042,2,12.693,12.693,0,0,1-4.682.785,13.492,13.492,0,0,1-5.024-.9,8.449,8.449,0,0,1-3.555-2.511,5.8,5.8,0,0,1-1.265-3.677Zm17.568.022a4.06,4.06,0,0,0-.957-2.691,5.781,5.781,0,0,0-2.529-1.749,10.738,10.738,0,0,0-7.109,0,5.886,5.886,0,0,0-2.529,1.726,4.154,4.154,0,0,0-.923,2.691,4.277,4.277,0,0,0,.923,2.735,6.058,6.058,0,0,0,2.529,1.749,10.738,10.738,0,0,0,7.109,0,5.781,5.781,0,0,0,2.529-1.749A4.148,4.148,0,0,0,838.382,218.684Zm8.055-.022a5.654,5.654,0,0,1,1.264-3.655,8.373,8.373,0,0,1,3.555-2.466,13.8,13.8,0,0,1,5.024-.874,12.8,12.8,0,0,1,4.717.785,7.2,7.2,0,0,1,3.008,1.928v-2.489h3.486v13.632h-3.486v-2.534a7.544,7.544,0,0,1-3.042,1.973,12.967,12.967,0,0,1-4.717.785,13.493,13.493,0,0,1-5.024-.9,8.478,8.478,0,0,1-3.521-2.511A5.8,5.8,0,0,1,846.438,218.662Zm17.568.022a4.062,4.062,0,0,0-.957-2.691,5.783,5.783,0,0,0-2.529-1.749,10.739,10.739,0,0,0-7.109,0,5.887,5.887,0,0,0-2.529,1.726,4.155,4.155,0,0,0-.923,2.691,4.278,4.278,0,0,0,.923,2.735,6.059,6.059,0,0,0,2.529,1.749,10.738,10.738,0,0,0,7.109,0,5.783,5.783,0,0,0,2.529-1.749A4.149,4.149,0,0,0,864.006,218.684Zm27.23-6.794-12.51,20.045h-3.555l4.067-6.57-8.374-13.475h3.828l6.528,11.054,6.46-11.054h3.555Z" transform="translate(889.011 90.094)" fill="#fff"/>
    <path id="Path_376" data-name="Path 376" d="M442.646,265.819l-8.15-4.484c-10.615-5.9-24.086-9.14-38.078-9.061-1.616.005-2.539,1.265-1.489,2.093l14.721,11.588Z" transform="translate(468.436 109.738)" fill="#e24645" fill-rule="evenodd"/>
    <path id="Path_377" data-name="Path 377" d="M442.671,278.3l-32.949.1-14.948,11.651a.981.981,0,0,0,.113,1.725,2.446,2.446,0,0,0,1.333.359c14-.013,27.514-3.337,38.279-9.273l8.172-4.567Z" transform="translate(468.232 121.059)" fill="#e24645" fill-rule="evenodd"/>
    <path id="Path_378" data-name="Path 378" d="M502.284,272.781a1.838,1.838,0,0,0-.437-.2L485.114,266.6l-12.348-4.432a9.208,9.208,0,0,0-3.328-.519l-69.942.223c-.908,0-1.619.469-1.624,1.065l-.066,9.148-.032,3.384-.066,9.148a.974.974,0,0,0,.506.785,2.219,2.219,0,0,0,1.2.336l39.164-.156L469,285.547a11.216,11.216,0,0,0,3.691-.642l29.138-10.536c1.042-.284,1.16-1.126.456-1.588Z" transform="translate(472.269 113.813)" fill="#fff" fill-rule="evenodd"/>
    <path id="Path_379" data-name="Path 379" d="M435.53,267.55a12.719,12.719,0,0,0-12.889.01c-3.6,2.363-3.638,6.142-.066,8.486a12.719,12.719,0,0,0,12.884-.076C439.016,273.639,439.05,269.86,435.53,267.55Z" transform="translate(498.64 115.623)" fill="#4c6ec9" fill-rule="evenodd"/>
    <path id="Path_380" data-name="Path 380" d="M403.273,264.434l-7.329.058c-1.31,0-2.376.7-2.436,1.6l-.05,6.5-.056,6.564a1.352,1.352,0,0,0,.689,1.1,3.064,3.064,0,0,0,1.676.452l7.382-.024.05-6.429.021-3.384Z" transform="translate(467.153 115.028)" fill="#bdf1ff" fill-rule="evenodd"/>
    <path id="Path_381" data-name="Path 381" d="M405.787,261.762l-6.315.055c-.855-.032-1.619.469-1.571,1.03l-.119,9.183-.032,3.384-.018,9.117a.892.892,0,0,0,.474.806,2.121,2.121,0,0,0,1.233.315l6.167-.02.132-10.246-.027-3.346Z" transform="translate(472.293 113.865)" fill="#f4bd18" fill-rule="evenodd"/>
    <path id="Path_382" data-name="Path 382" d="M454.821,271.251a1.706,1.706,0,0,0-.363-.175L437.724,265.1l-.107,13.793,16.827-6.087C455.361,272.483,455.493,271.692,454.821,271.251Z" transform="translate(519.658 115.315)" fill="#e24645" fill-rule="evenodd"/>
    <path id="Path_383" data-name="Path 383" d="M439.747,269.411a2.645,2.645,0,0,0-1.453-.389l-39.716.193c-1.137.006-2.067.616-2.081,1.365v.232a1.146,1.146,0,0,0,.588.95,2.645,2.645,0,0,0,1.453.389l39.67-.223c1.142,0,2.118-.644,2.123-1.392l0-.174a1.145,1.145,0,0,0-.588-.95Z" transform="translate(470.829 117.024)" fill="#e24645" fill-rule="evenodd"/>
    <path id="Path_384" data-name="Path 384" d="M108.3,342.348h0c0-15.932,19.688-28.848,43.975-28.848H1690.5c11.663,0,22.848,3.039,31.094,8.449s12.88,12.747,12.88,20.4V364.7c0,15.932-19.688,28.848-43.975,28.848H152.274c-24.287,0-43.975-12.916-43.975-28.848Z" transform="translate(128.602 136.371)" fill="rgba(255,255,255,0.76)" fill-rule="evenodd"/>
    <path id="Path_385" data-name="Path 385" d="M121.808,321.184H454.647v57.987H121.808Z" transform="translate(144.644 139.714)" fill="rgba(0,0,0,0)" fill-rule="evenodd"/>
    <path id="Path_386" data-name="Path 386" d="M135.971,352.534h9.946v1.973H132.246V335.852h3.726Zm23.645,2.22a16.452,16.452,0,0,1-5.708-.942,9.448,9.448,0,0,1-4-2.668,6.059,6.059,0,0,1-1.436-3.991,5.9,5.9,0,0,1,1.5-3.991,9.522,9.522,0,0,1,4.067-2.646,18.393,18.393,0,0,1,11.484,0,9.251,9.251,0,0,1,4.067,2.646,6,6,0,0,1-.034,7.982,9.931,9.931,0,0,1-4.17,2.668A16.848,16.848,0,0,1,159.617,354.753Zm0-2.152a11.383,11.383,0,0,0,3.76-.605,6.775,6.775,0,0,0,2.837-1.861,4.338,4.338,0,0,0,1.094-2.982,4.452,4.452,0,0,0-1.06-3,6.349,6.349,0,0,0-2.8-1.839,10.978,10.978,0,0,0-3.691-.605,11.191,11.191,0,0,0-3.76.605,6.139,6.139,0,0,0-2.7,1.839,4.544,4.544,0,0,0-1.025,3,4.678,4.678,0,0,0,.991,3.027,6.225,6.225,0,0,0,2.7,1.816A10.684,10.684,0,0,0,159.617,352.6ZM205.8,339.843l-7.007,14.664h-3.828L189.6,342.87l-5.4,11.637h-3.828l-7.041-14.664h3.794l5.161,12.31,5.537-12.31h3.794l5.435,12.332,5.059-12.332Zm19.177,3.812v2.063H208.707v-2.063Zm16.061-1.816h-4.683v12.668h-3.726V341.838h-2.905v-2h2.905v-1.054a3.831,3.831,0,0,1,1.948-3.587q1.948-1.143,6.221-1.143v2.04a6.855,6.855,0,0,0-3.452.628,2.255,2.255,0,0,0-.991,2.063v1.054h4.683Zm6.249-4.395a3.345,3.345,0,0,1-1.812-.471,1.425,1.425,0,0,1-.718-1.188,1.372,1.372,0,0,1,.718-1.166,3.229,3.229,0,0,1,1.812-.493,3,3,0,0,1,1.743.493,1.372,1.372,0,0,1,.718,1.166,1.425,1.425,0,0,1-.718,1.188A3.108,3.108,0,0,1,247.285,337.444Zm1.811,2.4v14.664h-3.726V339.843Zm4.912,7.265a5.943,5.943,0,0,1,1.4-3.924,9.081,9.081,0,0,1,3.828-2.646,14.917,14.917,0,0,1,5.435-.942,14.671,14.671,0,0,1,4.853.785,8.011,8.011,0,0,1,3.418,2.085v-7.78h3.76v19.821h-3.76v-2.758a7.861,7.861,0,0,1-3.247,2.175,14.041,14.041,0,0,1-5.059.83,14.51,14.51,0,0,1-5.4-.964,9.157,9.157,0,0,1-3.828-2.691A6.208,6.208,0,0,1,254.009,347.108Zm18.935.045a4.385,4.385,0,0,0-1.025-2.892,6.182,6.182,0,0,0-2.734-1.883,11.31,11.31,0,0,0-7.622-.022,6.452,6.452,0,0,0-2.734,1.883,4.3,4.3,0,0,0-1.025,2.87,4.536,4.536,0,0,0,1.025,2.96,6.453,6.453,0,0,0,2.734,1.883,10.593,10.593,0,0,0,3.794.65,10.873,10.873,0,0,0,3.828-.65,6.182,6.182,0,0,0,2.734-1.883A4.473,4.473,0,0,0,272.945,347.152Zm30.459-.538a8.255,8.255,0,0,1-.137,1.457H285.391a4.311,4.311,0,0,0,2.256,3.408,9.843,9.843,0,0,0,5.024,1.211,9.55,9.55,0,0,0,4-.74,4.582,4.582,0,0,0,2.29-1.973h4a6.943,6.943,0,0,1-3.589,3.453,15.159,15.159,0,0,1-6.7,1.323,16.271,16.271,0,0,1-5.708-.942,9.205,9.205,0,0,1-3.931-2.668,6.324,6.324,0,0,1-.034-7.982,8.791,8.791,0,0,1,3.9-2.646,16.665,16.665,0,0,1,5.776-.919,15.767,15.767,0,0,1,5.605.919A8.7,8.7,0,0,1,302.07,343,5.47,5.47,0,0,1,303.4,346.614Zm-3.828-.516a3.367,3.367,0,0,0-.957-2.4,5.7,5.7,0,0,0-2.563-1.525,11.584,11.584,0,0,0-3.555-.516,9.142,9.142,0,0,0-4.785,1.188,4.3,4.3,0,0,0-2.256,3.251Zm12.451-11.413v19.821H308.3V334.686Zm8.228,2.758a3.345,3.345,0,0,1-1.812-.471,1.425,1.425,0,0,1-.718-1.188,1.372,1.372,0,0,1,.718-1.166,3.229,3.229,0,0,1,1.812-.493,3,3,0,0,1,1.743.493,1.372,1.372,0,0,1,.718,1.166,1.425,1.425,0,0,1-.718,1.188A3.108,3.108,0,0,1,320.254,337.444Zm1.811,2.4v14.664H318.34V339.843Zm10.825,2v8.655a1.685,1.685,0,0,0,.684,1.525,5.043,5.043,0,0,0,2.427.426h2.734v2.063h-3.35a9.2,9.2,0,0,1-4.648-.942,3.324,3.324,0,0,1-1.538-3.072v-8.655h-2.905v-2H329.2v-3.7h3.691v3.7h5.845v2Zm29.62-2-13.5,21.57h-3.828l4.409-7.063-9.023-14.507H344.7l7.007,11.884,6.939-11.884h3.862Z" transform="translate(157.038 145.314)" fill="#798998"/>
    <path id="Path_387" data-name="Path 387" d="M273.966,341.388H887.974" transform="translate(325.327 148.502)" fill="rgba(0,0,0,0)" fill-rule="evenodd"/>
    <path id="Path_388" data-name="Path 388" d="M273.966,341.388H863.474" transform="translate(325.327 148.502)" fill="none" stroke="#4a86e8" stroke-linejoin="round" stroke-miterlimit="10" stroke-width="4" fill-rule="evenodd"/>
    <path id="Path_389" data-name="Path 389" d="M563.584,343.389c0,3.646-4.505,6.6-10.062,6.6s-10.062-2.955-10.062-6.6,4.505-6.6,10.062-6.6S563.584,339.743,563.584,343.389Z" transform="translate(645.342 146.501)" fill="#4a86e8" stroke="#4a86e8" stroke-miterlimit="10" stroke-width="4"/>
    <path id="Path_390" data-name="Path 390" d="M578.067,337.992l-8.149-4.484c-10.615-5.9-24.086-9.14-38.079-9.061-1.616.005-2.539,1.265-1.49,2.093l14.721,11.588Z" transform="translate(629.245 141.133)" fill="#e24645" fill-rule="evenodd"/>
    <path id="Path_391" data-name="Path 391" d="M578.092,350.471l-32.949.1-14.948,11.651a.981.981,0,0,0,.113,1.725,2.446,2.446,0,0,0,1.333.359c14-.013,27.514-3.337,38.279-9.273Z" transform="translate(629.041 152.454)" fill="#e24645" fill-rule="evenodd"/>
    <path id="Path_392" data-name="Path 392" d="M637.705,344.955a1.828,1.828,0,0,0-.437-.2l-16.734-5.981-12.348-4.432a9.206,9.206,0,0,0-3.328-.519l-69.942.223c-.908,0-1.619.469-1.624,1.065l-.066,9.148-.031,3.384-.065,9.148a.973.973,0,0,0,.506.785,2.22,2.22,0,0,0,1.2.336L574,357.752l30.419-.031a11.213,11.213,0,0,0,3.691-.642l29.138-10.536c1.042-.284,1.16-1.126.456-1.588Z" transform="translate(633.078 145.208)" fill="#fff" fill-rule="evenodd"/>
    <path id="Path_393" data-name="Path 393" d="M570.951,339.723a12.719,12.719,0,0,0-12.889.01c-3.6,2.363-3.638,6.142-.066,8.486a12.719,12.719,0,0,0,12.884-.076C574.437,345.812,574.471,342.033,570.951,339.723Z" transform="translate(659.449 147.018)" fill="#4c6ec9" fill-rule="evenodd"/>
    <path id="Path_394" data-name="Path 394" d="M538.695,336.607l-7.329.058c-1.31,0-2.376.7-2.436,1.6l-.05,6.5-.056,6.564a1.352,1.352,0,0,0,.689,1.1,3.064,3.064,0,0,0,1.675.452l7.382-.023.05-6.429.021-3.384Z" transform="translate(627.963 146.423)" fill="#bdf1ff" fill-rule="evenodd"/>
    <path id="Path_395" data-name="Path 395" d="M541.209,333.935l-6.315.055c-.855-.032-1.619.469-1.571,1.03L533.2,344.2l-.031,3.384-.018,9.117a.892.892,0,0,0,.474.806,2.12,2.12,0,0,0,1.233.315l6.167-.02.132-10.246-.027-3.346Z" transform="translate(633.102 145.26)" fill="#f4bd18" fill-rule="evenodd"/>
    <path id="Path_396" data-name="Path 396" d="M590.242,343.425a1.709,1.709,0,0,0-.363-.175l-16.734-5.981-.107,13.793,16.827-6.088C590.782,344.657,590.914,343.866,590.242,343.425Z" transform="translate(680.467 146.711)" fill="#e24645" fill-rule="evenodd"/>
    <path id="Path_397" data-name="Path 397" d="M575.169,341.584a2.645,2.645,0,0,0-1.453-.389L534,341.389c-1.137.006-2.067.616-2.082,1.365l0,.232a1.146,1.146,0,0,0,.588.95,2.644,2.644,0,0,0,1.453.389l39.67-.223c1.142,0,2.118-.644,2.123-1.393l0-.174A1.147,1.147,0,0,0,575.169,341.584Z" transform="translate(631.639 148.419)" fill="#e24645" fill-rule="evenodd"/>
    <path id="Path_398" data-name="Path 398" d="M108.3,412.949h0c0-15.932,19.688-28.848,43.975-28.848H1690.5c11.663,0,22.848,3.039,31.094,8.449s12.88,12.747,12.88,20.4V435.3c0,15.932-19.688,28.848-43.975,28.848H152.274c-24.287,0-43.975-12.916-43.975-28.848Z" transform="translate(128.602 167.082)" fill="rgba(255,255,255,0.76)" fill-rule="evenodd"/>
    <path id="Path_399" data-name="Path 399" d="M121.808,391.785H454.647v57.987H121.808Z" transform="translate(144.644 170.425)" fill="rgba(0,0,0,0)" fill-rule="evenodd"/>
    <path id="Path_400" data-name="Path 400" d="M154.154,406.453v18.655h-3.726v-8.453H135.971v8.453h-3.726V406.453h3.726v8.184h14.458v-8.184Zm8.246,1.592a3.345,3.345,0,0,1-1.811-.471,1.425,1.425,0,0,1-.718-1.188,1.372,1.372,0,0,1,.718-1.166,3.229,3.229,0,0,1,1.811-.493,3,3,0,0,1,1.743.493,1.372,1.372,0,0,1,.718,1.166,1.425,1.425,0,0,1-.718,1.188A3.108,3.108,0,0,1,162.4,408.045Zm1.812,2.4v14.664h-3.726V410.444Zm15.542-.247a14.042,14.042,0,0,1,5.059.83,7.748,7.748,0,0,1,3.247,2.085v-2.668h3.76v14.978a5.47,5.47,0,0,1-1.3,3.588,8.392,8.392,0,0,1-3.726,2.444,16.725,16.725,0,0,1-5.674.874,17.407,17.407,0,0,1-7.349-1.368q-2.939-1.345-3.452-3.7h3.657a4.553,4.553,0,0,0,2.529,2.13,11.725,11.725,0,0,0,4.614.83,8.953,8.953,0,0,0,4.99-1.256,3.983,3.983,0,0,0,1.948-3.543V422.35a8.289,8.289,0,0,1-3.247,2.153,13.709,13.709,0,0,1-5.059.852,14.51,14.51,0,0,1-5.4-.964,9.158,9.158,0,0,1-3.828-2.691,6.207,6.207,0,0,1-1.4-3.991,5.943,5.943,0,0,1,1.4-3.924,9.081,9.081,0,0,1,3.828-2.646A14.818,14.818,0,0,1,179.754,410.2Zm8.306,7.556a4.385,4.385,0,0,0-1.025-2.892,6.182,6.182,0,0,0-2.734-1.883,11.31,11.31,0,0,0-7.622-.022,6.452,6.452,0,0,0-2.734,1.883,4.3,4.3,0,0,0-1.025,2.87,4.535,4.535,0,0,0,1.025,2.96,6.452,6.452,0,0,0,2.734,1.883,10.592,10.592,0,0,0,3.794.65,10.872,10.872,0,0,0,3.828-.65,6.181,6.181,0,0,0,2.734-1.883A4.472,4.472,0,0,0,188.059,417.753Zm21.162-7.579a13.5,13.5,0,0,1,4.546.718,6.834,6.834,0,0,1,3.213,2.13,5.224,5.224,0,0,1,1.162,3.431v8.655h-3.657v-8.3a3.846,3.846,0,0,0-1.675-3.363,7.9,7.9,0,0,0-4.58-1.166,8.073,8.073,0,0,0-4.683,1.211,4.022,4.022,0,0,0-1.709,3.5v8.117h-3.726V405.287h3.726v7.242a7.106,7.106,0,0,1,3.008-1.727A14.227,14.227,0,0,1,209.221,410.175Zm30.527,4.081v2.063H223.479v-2.063Zm16.061-1.816h-4.683v12.668H247.4V412.439H244.5v-2H247.4V409.39a3.831,3.831,0,0,1,1.948-3.588q1.948-1.143,6.221-1.143v2.04a6.856,6.856,0,0,0-3.452.628,2.255,2.255,0,0,0-.991,2.063v1.054h4.683Zm6.249-4.395a3.345,3.345,0,0,1-1.812-.471,1.425,1.425,0,0,1-.718-1.188,1.372,1.372,0,0,1,.718-1.166,3.229,3.229,0,0,1,1.812-.493,3,3,0,0,1,1.743.493,1.372,1.372,0,0,1,.718,1.166,1.425,1.425,0,0,1-.718,1.188A3.108,3.108,0,0,1,262.058,408.045Zm1.811,2.4v14.664h-3.726V410.444Zm4.912,7.265a5.944,5.944,0,0,1,1.4-3.924,9.082,9.082,0,0,1,3.828-2.646,14.917,14.917,0,0,1,5.435-.942,14.671,14.671,0,0,1,4.853.785,8.01,8.01,0,0,1,3.418,2.085v-7.78h3.76v19.821h-3.76V422.35a7.861,7.861,0,0,1-3.247,2.175,14.042,14.042,0,0,1-5.059.83,14.51,14.51,0,0,1-5.4-.964,9.158,9.158,0,0,1-3.828-2.691A6.208,6.208,0,0,1,268.782,417.708Zm18.935.045a4.385,4.385,0,0,0-1.025-2.892,6.183,6.183,0,0,0-2.734-1.883,11.31,11.31,0,0,0-7.622-.022,6.451,6.451,0,0,0-2.734,1.883,4.3,4.3,0,0,0-1.025,2.87,4.535,4.535,0,0,0,1.025,2.96,6.451,6.451,0,0,0,2.734,1.883,10.592,10.592,0,0,0,3.794.65,10.873,10.873,0,0,0,3.828-.65,6.182,6.182,0,0,0,2.734-1.883A4.472,4.472,0,0,0,287.717,417.753Zm30.459-.538a8.257,8.257,0,0,1-.137,1.457H300.163a4.311,4.311,0,0,0,2.256,3.408,9.843,9.843,0,0,0,5.024,1.211,9.55,9.55,0,0,0,4-.74,4.582,4.582,0,0,0,2.29-1.973h4a6.943,6.943,0,0,1-3.589,3.453,15.159,15.159,0,0,1-6.7,1.323,16.271,16.271,0,0,1-5.708-.942,9.205,9.205,0,0,1-3.931-2.668,6.324,6.324,0,0,1-.034-7.982,8.792,8.792,0,0,1,3.9-2.646,16.666,16.666,0,0,1,5.776-.919,15.767,15.767,0,0,1,5.605.919,8.7,8.7,0,0,1,3.794,2.489A5.471,5.471,0,0,1,318.176,417.215Zm-3.828-.516a3.367,3.367,0,0,0-.957-2.4,5.7,5.7,0,0,0-2.563-1.525,11.584,11.584,0,0,0-3.555-.516,9.141,9.141,0,0,0-4.785,1.188,4.3,4.3,0,0,0-2.256,3.251ZM326.8,405.287v19.821h-3.726V405.287Zm8.228,2.758a3.345,3.345,0,0,1-1.812-.471,1.425,1.425,0,0,1-.718-1.188,1.372,1.372,0,0,1,.718-1.166,3.229,3.229,0,0,1,1.812-.493,3,3,0,0,1,1.743.493,1.372,1.372,0,0,1,.718,1.166,1.425,1.425,0,0,1-.718,1.188A3.108,3.108,0,0,1,335.026,408.045Zm1.812,2.4v14.664h-3.726V410.444Zm10.825,2v8.655a1.685,1.685,0,0,0,.684,1.525,5.043,5.043,0,0,0,2.427.426h2.734v2.063h-3.35a9.2,9.2,0,0,1-4.648-.942,3.324,3.324,0,0,1-1.538-3.072v-8.655h-2.905v-2h2.905v-3.7h3.691v3.7h5.845v2Zm29.62-2-13.5,21.57h-3.828l4.409-7.063-9.023-14.507h4.136l7.007,11.884,6.938-11.884Z" transform="translate(157.038 176.025)" fill="#798998"/>
    <path id="Path_401" data-name="Path 401" d="M273.966,411.99h850.323" transform="translate(325.327 179.214)" fill="rgba(0,0,0,0)" fill-rule="evenodd"/>
    <path id="Path_402" data-name="Path 402" d="M273.966,411.99h825.823" transform="translate(325.327 179.214)" fill="none" stroke="#f4bd18" stroke-linejoin="round" stroke-miterlimit="10" stroke-width="4" fill-rule="evenodd"/>
    <path id="Path_403" data-name="Path 403" d="M671.615,413.991c0,3.646-4.505,6.6-10.062,6.6s-10.062-2.955-10.062-6.6,4.505-6.6,10.062-6.6S671.615,410.345,671.615,413.991Z" transform="translate(773.626 177.213)" fill="#f4bd18" stroke="#f4bd18" stroke-miterlimit="10" stroke-width="4"/>
    <path id="Path_404" data-name="Path 404" d="M702.075,407.807l-8.15-4.484c-10.615-5.9-24.085-9.14-38.078-9.061-1.616.005-2.539,1.265-1.489,2.093l14.721,11.588Z" transform="translate(776.501 171.502)" fill="#e24645" fill-rule="evenodd"/>
    <path id="Path_405" data-name="Path 405" d="M702.1,420.286l-32.949.1L654.2,432.042a.981.981,0,0,0,.113,1.725,2.447,2.447,0,0,0,1.333.359c14-.013,27.514-3.337,38.279-9.273l8.172-4.567Z" transform="translate(776.296 182.823)" fill="#e24645" fill-rule="evenodd"/>
    <path id="Path_406" data-name="Path 406" d="M761.713,414.77a1.835,1.835,0,0,0-.437-.2l-16.734-5.981L732.2,404.154a9.206,9.206,0,0,0-3.328-.519l-69.942.223c-.908,0-1.619.469-1.624,1.065l-.066,9.148-.031,3.384-.066,9.148a.973.973,0,0,0,.506.785,2.219,2.219,0,0,0,1.2.336l39.164-.156,30.419-.031a11.212,11.212,0,0,0,3.69-.642l29.138-10.536c1.042-.284,1.16-1.126.456-1.588Z" transform="translate(780.334 175.577)" fill="#fff" fill-rule="evenodd"/>
    <path id="Path_407" data-name="Path 407" d="M694.959,409.538a12.719,12.719,0,0,0-12.889.01c-3.6,2.363-3.638,6.143-.066,8.487a12.719,12.719,0,0,0,12.884-.076C698.445,415.627,698.479,411.848,694.959,409.538Z" transform="translate(806.705 177.387)" fill="#4c6ec9" fill-rule="evenodd"/>
    <path id="Path_408" data-name="Path 408" d="M662.7,406.422l-7.329.058c-1.31,0-2.376.7-2.436,1.6l-.05,6.5-.056,6.564a1.353,1.353,0,0,0,.689,1.1,3.064,3.064,0,0,0,1.676.452l7.382-.023.05-6.429.021-3.384Z" transform="translate(775.217 176.792)" fill="#bdf1ff" fill-rule="evenodd"/>
    <path id="Path_409" data-name="Path 409" d="M665.217,403.75l-6.315.055c-.855-.032-1.619.469-1.571,1.03l-.119,9.183-.032,3.384-.018,9.117a.891.891,0,0,0,.474.806,2.12,2.12,0,0,0,1.233.315l6.167-.02.132-10.246-.027-3.346Z" transform="translate(780.358 175.63)" fill="#f4bd18" fill-rule="evenodd"/>
    <path id="Path_410" data-name="Path 410" d="M714.25,413.239a1.707,1.707,0,0,0-.363-.175l-16.734-5.981-.107,13.793,16.827-6.087C714.79,414.471,714.922,413.68,714.25,413.239Z" transform="translate(827.723 177.08)" fill="#e24645" fill-rule="evenodd"/>
    <path id="Path_411" data-name="Path 411" d="M699.177,411.4a2.644,2.644,0,0,0-1.453-.389l-39.716.193c-1.137.006-2.067.616-2.082,1.365v.232a1.146,1.146,0,0,0,.588.95,2.644,2.644,0,0,0,1.453.389l39.67-.223c1.142,0,2.118-.644,2.123-1.392l0-.174A1.146,1.146,0,0,0,699.177,411.4Z" transform="translate(778.895 178.788)" fill="#e24645" fill-rule="evenodd"/>
    <path id="Path_412" data-name="Path 412" d="M113.026,482.765h0c0-15.932,19.688-28.848,43.975-28.848H1695.222c11.663,0,22.848,3.039,31.095,8.449s12.88,12.748,12.88,20.4v22.348c0,15.932-19.688,28.848-43.975,28.848H157c-24.286,0-43.975-12.916-43.975-28.848Z" transform="translate(118.897 199.707)" fill="rgba(255,255,255,0.76)" fill-rule="evenodd"/>
    <path id="Path_413" data-name="Path 413" d="M126.535,461.6H459.374v57.987H126.535Z" transform="translate(150.257 200.795)" fill="rgba(0,0,0,0)" fill-rule="evenodd"/>
    <path id="Path_414" data-name="Path 414" d="M155.976,481.7a4.524,4.524,0,0,1-2.427,3.879q-2.427,1.547-7.383,1.547H140.7v7.78h-3.726V476.25h9.194q4.785,0,7.28,1.525A4.5,4.5,0,0,1,155.976,481.7Zm-9.809,3.408a9.157,9.157,0,0,0,4.546-.874,2.816,2.816,0,0,0,1.47-2.534q0-3.453-6.016-3.453H140.7v6.861Zm18.16-2.489a6.135,6.135,0,0,1,2.769-1.951,12.633,12.633,0,0,1,4.443-.7v2.511h-.991q-6.221,0-6.221,4.44V494.9H160.6V480.24h3.725v2.377Zm31.9,4.395a8.26,8.26,0,0,1-.137,1.457H178.216a4.311,4.311,0,0,0,2.256,3.408,9.843,9.843,0,0,0,5.024,1.211,9.55,9.55,0,0,0,4-.74,4.582,4.582,0,0,0,2.29-1.973h4a6.942,6.942,0,0,1-3.589,3.453,15.159,15.159,0,0,1-6.7,1.323,16.271,16.271,0,0,1-5.708-.942,9.206,9.206,0,0,1-3.931-2.668,6.324,6.324,0,0,1-.034-7.982,8.791,8.791,0,0,1,3.9-2.646,16.664,16.664,0,0,1,5.776-.919,15.766,15.766,0,0,1,5.605.919A8.7,8.7,0,0,1,194.9,483.4,5.471,5.471,0,0,1,196.229,487.012ZM192.4,486.5a3.367,3.367,0,0,0-.957-2.4,5.7,5.7,0,0,0-2.563-1.525,11.585,11.585,0,0,0-3.555-.516,9.142,9.142,0,0,0-4.785,1.188,4.3,4.3,0,0,0-2.256,3.251Zm16.655,8.655a17.012,17.012,0,0,1-4.648-.583,8.458,8.458,0,0,1-3.213-1.614,3.6,3.6,0,0,1-1.3-2.354h3.828a2.513,2.513,0,0,0,1.572,1.794,8.487,8.487,0,0,0,3.691.7,7.685,7.685,0,0,0,3.35-.605q1.23-.628,1.23-1.57,0-.964-1.3-1.435a24.429,24.429,0,0,0-4.033-.919q-2.5-.426-4.067-.852a7.882,7.882,0,0,1-2.7-1.323,2.758,2.758,0,0,1-1.128-2.287,2.726,2.726,0,0,1,1.025-2.063,7.15,7.15,0,0,1,2.905-1.48,14.954,14.954,0,0,1,4.272-.561,12.678,12.678,0,0,1,6.016,1.233,4.057,4.057,0,0,1,2.427,3.363h-3.691a2.419,2.419,0,0,0-1.436-1.839,7.119,7.119,0,0,0-3.418-.7,7.67,7.67,0,0,0-3.213.561q-1.162.56-1.162,1.48a1.388,1.388,0,0,0,.718,1.188,6.255,6.255,0,0,0,1.777.762q1.094.269,3.008.605,2.427.426,3.931.852a7.081,7.081,0,0,1,2.563,1.233,2.7,2.7,0,0,1,1.128,2.175,2.923,2.923,0,0,1-1.025,2.175,6.874,6.874,0,0,1-2.871,1.525A15.17,15.17,0,0,1,209.056,495.151Zm33.778-8.139a8.26,8.26,0,0,1-.137,1.457H224.821a4.311,4.311,0,0,0,2.256,3.408,9.843,9.843,0,0,0,5.024,1.211,9.55,9.55,0,0,0,4-.74,4.582,4.582,0,0,0,2.29-1.973h4a6.943,6.943,0,0,1-3.589,3.453,15.159,15.159,0,0,1-6.7,1.323,16.271,16.271,0,0,1-5.708-.942,9.206,9.206,0,0,1-3.931-2.668,6.324,6.324,0,0,1-.034-7.982,8.791,8.791,0,0,1,3.9-2.646,16.664,16.664,0,0,1,5.776-.919,15.765,15.765,0,0,1,5.605.919A8.7,8.7,0,0,1,241.5,483.4,5.471,5.471,0,0,1,242.834,487.012Zm-3.828-.516a3.367,3.367,0,0,0-.957-2.4,5.7,5.7,0,0,0-2.563-1.525,11.585,11.585,0,0,0-3.555-.516,9.142,9.142,0,0,0-4.785,1.188,4.3,4.3,0,0,0-2.256,3.251Zm19.628-6.525a12.091,12.091,0,0,1,6.6,1.614,5.2,5.2,0,0,1,2.529,4.664V494.9H264.1v-8.3a3.846,3.846,0,0,0-1.675-3.363,7.9,7.9,0,0,0-4.58-1.166,8.072,8.072,0,0,0-4.683,1.211,4.022,4.022,0,0,0-1.709,3.5V494.9h-3.726V480.24h3.726v2.085a7.111,7.111,0,0,1,2.974-1.727,13.426,13.426,0,0,1,4.2-.628Zm19.727,2.265v8.655a1.685,1.685,0,0,0,.684,1.525,5.042,5.042,0,0,0,2.427.426h2.734V494.9h-3.35a9.2,9.2,0,0,1-4.648-.942,3.324,3.324,0,0,1-1.538-3.072v-8.655h-2.905v-2h2.905v-3.7h3.691v3.7h5.845v2Zm8.942,5.269a5.944,5.944,0,0,1,1.4-3.924,9.082,9.082,0,0,1,3.828-2.646,14.817,14.817,0,0,1,5.4-.942,14.148,14.148,0,0,1,5.093.83,7.758,7.758,0,0,1,3.213,2.085v-2.668H310V494.9h-3.76v-2.735a7.965,7.965,0,0,1-3.281,2.153,15.717,15.717,0,0,1-10.459-.135A9.185,9.185,0,0,1,288.7,491.5a6.208,6.208,0,0,1-1.4-3.991Zm18.935.045a4.385,4.385,0,0,0-1.025-2.892,6.182,6.182,0,0,0-2.734-1.883,11.311,11.311,0,0,0-7.622-.022,6.453,6.453,0,0,0-2.734,1.883,4.3,4.3,0,0,0-1.025,2.87,4.536,4.536,0,0,0,1.025,2.96,6.453,6.453,0,0,0,2.734,1.883,10.594,10.594,0,0,0,3.794.65,10.874,10.874,0,0,0,3.828-.65,6.182,6.182,0,0,0,2.734-1.883A4.473,4.473,0,0,0,306.238,487.55Zm14.565-5.314v8.655a1.685,1.685,0,0,0,.684,1.525,5.043,5.043,0,0,0,2.427.426h2.734V494.9H323.3a9.2,9.2,0,0,1-4.648-.942,3.324,3.324,0,0,1-1.538-3.072v-8.655h-2.905v-2h2.905v-3.7H320.8v3.7h5.845v2Zm12.257-4.395a3.345,3.345,0,0,1-1.811-.471,1.425,1.425,0,0,1-.718-1.188,1.372,1.372,0,0,1,.718-1.166,3.229,3.229,0,0,1,1.811-.493,3,3,0,0,1,1.743.493,1.372,1.372,0,0,1,.718,1.166,1.425,1.425,0,0,1-.718,1.188A3.108,3.108,0,0,1,333.061,477.841Zm1.812,2.4V494.9h-3.726V480.241Zm16.055,14.91a16.453,16.453,0,0,1-5.708-.942,9.448,9.448,0,0,1-4-2.668,6.059,6.059,0,0,1-1.436-3.991,5.9,5.9,0,0,1,1.5-3.991,9.522,9.522,0,0,1,4.067-2.646,18.392,18.392,0,0,1,11.484,0,9.251,9.251,0,0,1,4.067,2.646,6,6,0,0,1-.034,7.982,9.931,9.931,0,0,1-4.17,2.668A16.849,16.849,0,0,1,350.927,495.151Zm0-2.153a11.385,11.385,0,0,0,3.76-.605,6.775,6.775,0,0,0,2.837-1.861,4.338,4.338,0,0,0,1.094-2.982,4.452,4.452,0,0,0-1.06-3,6.347,6.347,0,0,0-2.8-1.839,10.977,10.977,0,0,0-3.691-.605,11.19,11.19,0,0,0-3.76.605,6.139,6.139,0,0,0-2.7,1.839,4.544,4.544,0,0,0-1.025,3,4.678,4.678,0,0,0,.991,3.027,6.226,6.226,0,0,0,2.7,1.816A10.685,10.685,0,0,0,350.927,493Zm27.281-13.027a12.091,12.091,0,0,1,6.6,1.614,5.2,5.2,0,0,1,2.529,4.664V494.9h-3.657v-8.3A3.846,3.846,0,0,0,382,483.245a7.9,7.9,0,0,0-4.58-1.166,8.072,8.072,0,0,0-4.683,1.211,4.022,4.022,0,0,0-1.709,3.5V494.9H367.3V480.24h3.726v2.085A7.112,7.112,0,0,1,374,480.6a13.426,13.426,0,0,1,4.2-.628Z" transform="translate(162.651 206.416)" fill="#798998"/>
    <path id="Path_415" data-name="Path 415" d="M278.693,481.806h1124.05" transform="translate(330.94 209.584)" fill="rgba(0,0,0,0)" fill-rule="evenodd"/>
    <path id="Path_416" data-name="Path 416" d="M278.693,481.806h1099.55" transform="translate(330.94 209.584)" fill="none" stroke="#93c47d" stroke-linejoin="round" stroke-miterlimit="10" stroke-width="4" fill-rule="evenodd"/>
    <path id="Path_417" data-name="Path 417" d="M801.476,483.807c0,3.646-4.505,6.6-10.062,6.6s-10.062-2.955-10.062-6.6,4.505-6.6,10.062-6.6S801.476,480.161,801.476,483.807Z" transform="translate(927.832 207.583)" fill="#93c47d" stroke="#93c47d" stroke-miterlimit="10" stroke-width="4"/>
    <path id="Path_418" data-name="Path 418" d="M820.666,479.2l-8.15-4.484c-10.615-5.9-24.085-9.14-38.078-9.061-1.616.005-2.539,1.265-1.489,2.093l14.721,11.588,33-.136Z" transform="translate(917.324 202.555)" fill="#e24645" fill-rule="evenodd"/>
    <path id="Path_419" data-name="Path 419" d="M820.691,491.675l-32.949.1-14.948,11.651a.981.981,0,0,0,.113,1.725,2.447,2.447,0,0,0,1.333.359c14-.013,27.514-3.337,38.279-9.273l8.172-4.567Z" transform="translate(917.12 213.877)" fill="#e24645" fill-rule="evenodd"/>
    <path id="Path_420" data-name="Path 420" d="M880.3,486.158a1.834,1.834,0,0,0-.436-.2l-16.734-5.981-12.348-4.432a9.208,9.208,0,0,0-3.328-.519l-69.942.223c-.908,0-1.619.469-1.624,1.065l-.066,9.148-.031,3.384-.066,9.148a.974.974,0,0,0,.506.785,2.22,2.22,0,0,0,1.2.336l39.164-.156,30.419-.031a11.215,11.215,0,0,0,3.691-.642l29.138-10.536c1.043-.284,1.16-1.126.456-1.588Z" transform="translate(921.156 206.631)" fill="#fff" fill-rule="evenodd"/>
    <path id="Path_421" data-name="Path 421" d="M813.55,480.927a12.719,12.719,0,0,0-12.889.01c-3.6,2.363-3.638,6.142-.066,8.487a12.718,12.718,0,0,0,12.884-.076C817.036,487.016,817.07,483.237,813.55,480.927Z" transform="translate(947.528 208.441)" fill="#4c6ec9" fill-rule="evenodd"/>
    <path id="Path_422" data-name="Path 422" d="M781.293,477.81l-7.329.058c-1.309,0-2.376.7-2.436,1.6l-.05,6.5-.056,6.564a1.352,1.352,0,0,0,.688,1.1,3.064,3.064,0,0,0,1.675.452l7.382-.024.05-6.429.021-3.384Z" transform="translate(916.041 207.845)" fill="#bdf1ff" fill-rule="evenodd"/>
    <path id="Path_423" data-name="Path 423" d="M783.807,475.138l-6.315.055c-.855-.032-1.619.469-1.571,1.03l-.118,9.183-.032,3.384-.018,9.117a.892.892,0,0,0,.474.806,2.122,2.122,0,0,0,1.233.315l6.167-.02.132-10.246-.027-3.346Z" transform="translate(921.181 206.683)" fill="#f4bd18" fill-rule="evenodd"/>
    <path id="Path_424" data-name="Path 424" d="M832.841,484.628a1.691,1.691,0,0,0-.363-.176l-16.734-5.981-.107,13.793,16.827-6.087C833.381,485.859,833.514,485.069,832.841,484.628Z" transform="translate(968.546 208.133)" fill="#e24645" fill-rule="evenodd"/>
    <path id="Path_425" data-name="Path 425" d="M817.767,482.787a2.645,2.645,0,0,0-1.453-.389l-39.716.193c-1.137.006-2.067.616-2.082,1.365l0,.232a1.146,1.146,0,0,0,.588.95,2.644,2.644,0,0,0,1.453.389l39.671-.223c1.142,0,2.117-.644,2.123-1.392l0-.174a1.146,1.146,0,0,0-.588-.95Z" transform="translate(919.717 209.841)" fill="#e24645" fill-rule="evenodd"/>
  </g>
</svg>
