<svg xmlns="http://www.w3.org/2000/svg" width="97" height="95.887" viewBox="0 0 97 95.887">
  <g id="Creative-Tail-rocket" transform="translate(0.287 3.423)">
    <ellipse id="Ellipse_69" data-name="Ellipse 69" cx="48.5" cy="44.5" rx="48.5" ry="44.5" transform="translate(-0.287)" fill="#263740"/>
    <path id="Path_336" data-name="Path 336" d="M3.9,86.052A64.026,64.026,0,0,0,64,128c.688,0,1.368-.03,2.051-.052A64.026,64.026,0,0,0,5.953,86C5.266,86,4.585,86.03,3.9,86.052Z" transform="translate(0 -38.959)" fill="#e6e6e6"/>
    <g id="Group_16" data-name="Group 16" transform="translate(8.509 -3.423)">
      <path id="Path_337" data-name="Path 337" d="M66.229,40.4c-1.971-2.472-7.5-1.295-13.833,2.94-4.4,3.1-11.73,16.229-12.525,19.29s4.9,2.307,6.121,1.59c1.929-1.133,7.375-9.52,7.919-10.357s4.149-.883,6.917-1.471A68.729,68.729,0,0,1,66.229,40.4Z" transform="translate(-39.795 0)" fill="#cc584c"/>
      <path id="Path_338" data-name="Path 338" d="M88.034,54.557c3.062.794,4.237,6.327,2.94,13.832-1.048,5.282-10.056,17.318-12.526,19.289s-4.1-3.539-3.943-4.942c.251-2.225,5.7-10.609,6.242-11.448s-.882-4.149-1.472-6.916A69.006,69.006,0,0,0,88.034,54.557Z" transform="translate(-39.795 0)" fill="#cc584c"/>
      <path id="Path_339" data-name="Path 339" d="M107.633.51C105.115-1.124,88.768.184,76.238,19.473c-10.348,15.936-16.251,32.37-16.5,34.592,2.517,1.636,9.226,5.991,9.226,5.991l9.226,5.99C80.118,64.914,93.274,52,103.08,36.9,115.6,17.609,110.146,2.145,107.633.51Z" transform="translate(-39.795 0)" fill="#e6e6e6"/>
      <circle id="Ellipse_70" data-name="Ellipse 70" cx="10" cy="10" r="10" transform="translate(41.497 15.67)" fill="#263740"/>
      <path id="Path_340" data-name="Path 340" d="M88.023,30.7a6,6,0,1,1,8.3-1.765A6.011,6.011,0,0,1,88.023,30.7Z" transform="translate(-39.795 0)" fill="#c2e2f2"/>
      <path id="Path_341" data-name="Path 341" d="M101.1,10.574a23.917,23.917,0,0,0,9.863,3.658c.352-7.678-1.936-12.818-3.326-13.725s-7.021-.9-13.892,2.542A23.929,23.929,0,0,0,101.1,10.574Z" transform="translate(-39.795 0)" fill="#cc584c"/>
      <g id="Group_15" data-name="Group 15" transform="translate(14.675 53.744)">
        <path id="Path_342" data-name="Path 342" d="M76.6,72.167a2.008,2.008,0,0,1-2.768.589L55.38,60.776a2.009,2.009,0,0,1-.589-2.769l2.18-3.354a2.007,2.007,0,0,1,2.768-.588L78.188,66.047a2.009,2.009,0,0,1,.59,2.769Z" transform="translate(-54.47 -53.744)" fill="#cc584c"/>
      </g>
      <path id="Path_343" data-name="Path 343" d="M62.59,60.688c-.6.925-1.336,2.1-2.1,3.4l9.079,5.9c.881-1.233,1.651-2.385,2.252-3.309s1.336-2.1,2.1-3.4l-9.077-5.9C63.961,58.613,63.189,59.763,62.59,60.688Z" transform="translate(-39.795 0)" fill="#bf5347"/>
      <path id="Path_344" data-name="Path 344" d="M57.057,61.863C50.44,72.051,42.108,92.694,46.508,95.551S66.374,82.4,72.992,72.21Z" transform="translate(-39.795 0)" fill="#ffd464"/>
      <path id="Path_345" data-name="Path 345" d="M58.734,62.952c-6.617,10.188-9.165,20.28-5.692,22.535S64.7,81.309,71.314,71.122Z" transform="translate(-39.795 0)" fill="#f2b255"/>
      <ellipse id="Ellipse_71" data-name="Ellipse 71" cx="3.5" cy="16.999" rx="3.5" ry="16.999" transform="translate(21.097 79.848) rotate(-147.003)" fill="#cc584c"/>
    </g>
    <g id="Group_17" data-name="Group 17" transform="translate(15.684 59.586)">
      <ellipse id="Ellipse_72" data-name="Ellipse 72" cx="6" cy="4.5" rx="6" ry="4.5" transform="translate(11.117 12.856) rotate(-157.883)" fill="#ccc"/>
      <path id="Path_346" data-name="Path 346" d="M23.26,100.669c-3.07-1.247-4.8-4.125-3.865-6.428a4.2,4.2,0,0,1,3.424-2.39c-2.438-.35-4.674.545-5.424,2.39-.936,2.3.8,5.181,3.865,6.428a7.277,7.277,0,0,0,3.829.479A7.75,7.75,0,0,1,23.26,100.669Z" transform="translate(-15.684 -90.056)" fill="#b3b3b3"/>
    </g>
    <g id="Group_18" data-name="Group 18" transform="translate(25.084 64.387)">
      <ellipse id="Ellipse_73" data-name="Ellipse 73" cx="3.936" cy="2.951" rx="3.936" ry="2.951" transform="matrix(-0.701, -0.713, 0.713, -0.701, 5.517, 9.751)" fill="#ccc"/>
      <path id="Path_347" data-name="Path 347" d="M38.051,103.457c-1.521-1.549-1.813-3.732-.65-4.875a2.75,2.75,0,0,1,2.683-.547,3.172,3.172,0,0,0-3.887.023c-1.163,1.145-.871,3.326.651,4.876a4.748,4.748,0,0,0,2.182,1.285A4.874,4.874,0,0,1,38.051,103.457Z" transform="translate(-34.106 -96.023)" fill="#b3b3b3"/>
    </g>
    <g id="Group_19" data-name="Group 19" transform="translate(21.738 66.971)">
      <ellipse id="Ellipse_74" data-name="Ellipse 74" cx="5.968" cy="4.476" rx="5.968" ry="4.476" transform="translate(11.487 11.86) rotate(-164.229)" fill="#ccc"/>
      <path id="Path_348" data-name="Path 348" d="M37.711,115.956c-3.169-.9-5.195-3.552-4.521-5.931a4.169,4.169,0,0,1,3.121-2.736c-2.447-.078-4.562,1.05-5.1,2.956-.673,2.378,1.354,5.035,4.525,5.93a7.238,7.238,0,0,0,3.839.054A7.708,7.708,0,0,1,37.711,115.956Z" transform="translate(-29.953 -105.93)" fill="#b3b3b3"/>
    </g>
    <path id="Path_349" data-name="Path 349" d="M27.953,21c0,4-1,5-5,5,4,0,5,1,5,5,0-4,1-5,5-5C28.953,26,27.953,25,27.953,21Z" transform="translate(-6.086 -6.933)" fill="#ffd464"/>
    <path id="Path_350" data-name="Path 350" d="M14.953,50c0,4-1,5-5,5,4,0,5,1,5,5,0-4,1-5,5-5C15.953,55,14.953,54,14.953,50Z" transform="translate(0 -16.508)" fill="#ffd464"/>
    <path id="Path_351" data-name="Path 351" d="M28.953,68c0,4-1,5-5,5,4,0,5,1,5,5,0-4,1-5,5-5C29.953,73,28.953,72,28.953,68Z" transform="translate(-6.351 -22.451)" fill="#ffd464"/>
    <path id="Path_352" data-name="Path 352" d="M81.953,101c0,4-1,5-5,5,4,0,5,1,5,5,0-4,1-5,5-5C82.953,106,81.953,105,81.953,101Z" transform="translate(-20.403 -38.959)" fill="#ffd464"/>
    <path id="Path_353" data-name="Path 353" d="M117.953,78c0,4-1,5-5,5,4,0,5,1,5,5,0-4,1-5,5-5C118.953,83,117.953,82,117.953,78Z" transform="translate(-31.287 -25.753)" fill="#ffd464"/>
    <path id="Path_354" data-name="Path 354" d="M114.953,43c0,4-1,5-5,5,4,0,5,1,5,5,0-4,1-5,5-5C115.953,48,114.953,47,114.953,43Z" transform="translate(-31.287 -14.197)" fill="#ffd464"/>
    <path id="Path_355" data-name="Path 355" d="M64.953,7c0,4-1,5-5,5,4,0,5,1,5,5,0-4,1-5,5-5C65.953,12,64.953,11,64.953,7Z" transform="translate(-15.896)" fill="#ffd464"/>
    <path id="Path_356" data-name="Path 356" d="M47.953,28c0,4-1,5-5,5,4,0,5,1,5,5,0-4,1-5,5-5C48.953,33,47.953,32,47.953,28Z" transform="translate(-11.389 -9.245)" fill="#ffd464"/>
  </g>
</svg>
